<svg width="16" height="16" viewBox="0 0 16 16" fill="none" xmlns="http://www.w3.org/2000/svg">
<path fill-rule="evenodd" clip-rule="evenodd" d="M9.0531 3.67383C10.332 3.67383 11.4428 4.40434 11.9926 5.46973C13.7535 5.53928 15.1664 6.9878 15.1664 8.77344C15.1663 10.4284 13.9434 11.8037 12.3539 12.043C12.2588 13.7876 10.8139 15.167 9.0531 15.167H4.14001C2.31738 15.167 0.833639 13.6829 0.833374 11.8604V6.98047C0.833388 5.15024 2.318 3.67384 4.14001 3.67383H9.0531ZM1.83337 8.5V11.8604C1.83364 13.1306 2.86966 14.167 4.14001 14.167H9.0531C10.3242 14.167 11.3595 13.1365 11.3597 11.8604V8.5H1.83337ZM12.3597 11.0234C13.391 10.7939 14.1663 9.87216 14.1664 8.77344C14.1664 7.66944 13.3916 6.75081 12.3597 6.52246V11.0234ZM4.14001 4.67383C2.86874 4.67384 1.83339 5.70407 1.83337 6.98047V7.5H11.3597V6.98047C11.3597 5.70996 10.3236 4.67383 9.0531 4.67383H4.14001Z" fill="#DF6C67"/>
<path d="M3.66638 1C3.94252 1 4.16638 1.22386 4.16638 1.5V2.66699C4.16621 2.94298 3.94242 3.16699 3.66638 3.16699C3.39046 3.16686 3.16656 2.9429 3.16638 2.66699V1.5C3.16638 1.22394 3.39035 1.00013 3.66638 1Z" fill="#DF6C67"/>
<path d="M6.33337 1C6.60952 1 6.83337 1.22386 6.83337 1.5V2.66699C6.8332 2.94298 6.60941 3.16699 6.33337 3.16699C6.05734 3.16699 5.83355 2.94298 5.83337 2.66699V1.5C5.83337 1.22386 6.05723 1 6.33337 1Z" fill="#DF6C67"/>
<path d="M9.00037 1C9.27634 1.0002 9.50037 1.22398 9.50037 1.5V2.66699C9.50019 2.94286 9.27623 3.16679 9.00037 3.16699C8.72433 3.16699 8.50054 2.94298 8.50037 2.66699V1.5C8.50037 1.22386 8.72422 1 9.00037 1Z" fill="#DF6C67"/>
</svg>
