<svg width="16" height="16" viewBox="0 0 16 16" fill="none" xmlns="http://www.w3.org/2000/svg">
<path fill-rule="evenodd" clip-rule="evenodd" d="M8.19177 5.50696C8.20581 5.50802 8.21979 5.50957 8.23376 5.51087C8.25242 5.5126 8.27089 5.51556 8.28943 5.5177C8.35235 5.52494 8.41454 5.53419 8.47595 5.54602C8.48995 5.54873 8.50403 5.5509 8.51794 5.55384C8.59435 5.56993 8.66987 5.58947 8.74353 5.61243C8.81666 5.6352 8.88828 5.66142 8.95837 5.69055C8.98261 5.70063 9.00582 5.71294 9.02966 5.72376C9.07555 5.74456 9.12105 5.76575 9.16541 5.78919C9.19459 5.80461 9.22286 5.82148 9.25134 5.83802C9.28628 5.85828 9.32102 5.87863 9.35486 5.90052C9.38675 5.92115 9.41774 5.94295 9.44861 5.96497C9.48084 5.98795 9.51227 6.01181 9.54333 6.03626C9.56973 6.05704 9.59594 6.07793 9.62146 6.09973C9.65515 6.12851 9.68798 6.15811 9.72009 6.1886C9.74214 6.20954 9.76425 6.23035 9.78552 6.25208C9.82457 6.29195 9.8615 6.3337 9.89783 6.3761C9.90968 6.38994 9.92241 6.40302 9.93396 6.41712C9.98294 6.47687 10.0302 6.53849 10.0736 6.60266C10.2083 6.80213 10.315 7.02224 10.3881 7.25696C10.4094 7.3253 10.4264 7.39523 10.4418 7.46595C10.4475 7.4921 10.4515 7.5186 10.4564 7.54505C10.4657 7.59569 10.4737 7.64671 10.4799 7.69837C10.4826 7.7211 10.4855 7.74381 10.4877 7.76673C10.4948 7.84359 10.5004 7.92143 10.5004 8.00012C10.5004 8.07886 10.4948 8.15662 10.4877 8.23352C10.4859 8.25251 10.483 8.2713 10.4808 8.29016C10.4748 8.34245 10.4676 8.39417 10.4584 8.44544C10.4531 8.47488 10.4481 8.50425 10.4418 8.53333C10.4263 8.60436 10.4095 8.67465 10.3881 8.74329C10.3652 8.81665 10.3372 8.88783 10.308 8.95813C10.3048 8.96568 10.3014 8.97309 10.2982 8.98059C10.2381 9.1213 10.1653 9.25493 10.0814 9.38098C10.0763 9.38866 10.072 9.39681 10.0668 9.40442C10.0265 9.46357 9.98392 9.52093 9.93884 9.5763C9.9301 9.58703 9.92042 9.59696 9.9115 9.60755C9.81905 9.71734 9.71757 9.81879 9.60779 9.91126C9.5972 9.92018 9.58727 9.92986 9.57654 9.9386C9.52117 9.98369 9.46381 10.0262 9.40466 10.0665C9.3963 10.0722 9.3877 10.0775 9.37927 10.0831C9.32564 10.1187 9.27066 10.1523 9.21423 10.1837C9.20302 10.19 9.19234 10.1972 9.18103 10.2032C9.11947 10.2363 9.05608 10.2661 8.99158 10.2941C8.97727 10.3003 8.96306 10.3067 8.94861 10.3126C8.88151 10.3402 8.8134 10.3661 8.74353 10.3878C8.67469 10.4093 8.60384 10.4261 8.53259 10.4415C8.50513 10.4475 8.47738 10.4521 8.44958 10.4572C8.40471 10.4653 8.35952 10.4719 8.31384 10.4777C8.28207 10.4817 8.25027 10.4856 8.21814 10.4884C8.1463 10.4946 8.07379 10.5001 8.00037 10.5001L7.80798 10.4923C7.79881 10.4916 7.78979 10.4892 7.78064 10.4884C7.74851 10.4856 7.71671 10.4817 7.68494 10.4777C7.63991 10.472 7.5954 10.4652 7.55115 10.4572C7.52202 10.4519 7.493 10.4468 7.46423 10.4406C7.39422 10.4253 7.32489 10.4089 7.2572 10.3878C7.02244 10.3148 6.8024 10.2081 6.60291 10.0734C6.47681 9.98817 6.35965 9.89049 6.25134 9.7843C6.23177 9.76512 6.21266 9.74553 6.19373 9.72571C6.1606 9.69104 6.12816 9.6558 6.09705 9.61927C6.07588 9.59441 6.05572 9.56877 6.03552 9.54309C6.00718 9.50706 5.97986 9.47033 5.95349 9.43274C5.93814 9.41086 5.92323 9.38872 5.90857 9.36634C5.88081 9.32394 5.85467 9.28058 5.82947 9.23645C5.81595 9.21279 5.80219 9.1893 5.78943 9.16516C5.76599 9.1208 5.7448 9.07531 5.724 9.02942C5.71319 9.00557 5.70087 8.98238 5.6908 8.95813C5.66166 8.88803 5.63544 8.81643 5.61267 8.74329C5.58999 8.67054 5.57104 8.59606 5.55505 8.52063C5.55182 8.50541 5.54922 8.49006 5.54626 8.47473C5.53439 8.41299 5.52517 8.3505 5.51794 8.28723C5.51593 8.26966 5.51276 8.25218 5.51111 8.2345C5.50395 8.15732 5.50037 8.07915 5.50037 8.00012C5.50037 7.92081 5.5039 7.84223 5.51111 7.76477C5.51319 7.74248 5.51723 7.72048 5.5199 7.69837C5.52693 7.63978 5.53524 7.58181 5.54626 7.52454C5.54922 7.50922 5.55182 7.49386 5.55505 7.47864C5.57101 7.40345 5.59007 7.32948 5.61267 7.25696C5.6614 7.10039 5.7251 6.95044 5.80212 6.80872C5.8406 6.73799 5.88223 6.66907 5.92712 6.60266C5.972 6.53624 6.01979 6.47196 6.07068 6.41028C6.17268 6.28666 6.28594 6.17246 6.40955 6.07044C6.47135 6.01943 6.53634 5.97186 6.60291 5.92688C6.66927 5.88203 6.73828 5.84033 6.80896 5.80188C6.95059 5.72493 7.10074 5.66113 7.2572 5.61243C7.32972 5.58983 7.4037 5.57076 7.47888 5.55481C7.4941 5.55158 7.50946 5.54898 7.52478 5.54602C7.58558 5.53432 7.64708 5.5249 7.70935 5.5177C7.72788 5.51555 7.74636 5.51261 7.76501 5.51087C7.84239 5.50367 7.92114 5.50012 8.00037 5.50012L8.19177 5.50696ZM8.00037 6.50012C7.1737 6.50012 6.50037 7.17346 6.50037 8.00012L6.50818 8.15345C6.55363 8.59794 6.79459 8.98481 7.14294 9.22864C7.18903 9.26088 7.23685 9.29147 7.2865 9.31848C7.33473 9.34467 7.38471 9.36788 7.43591 9.3888C7.55659 9.43803 7.68491 9.4712 7.81873 9.48743C7.8782 9.49468 7.93893 9.50012 8.00037 9.50012C8.36204 9.50004 8.69411 9.37067 8.95349 9.15637C9.02747 9.09526 9.09551 9.02724 9.15662 8.95325C9.3447 8.72549 9.46648 8.44166 9.49353 8.13098L9.50037 8.00012C9.50037 7.222 8.90341 6.5797 8.14392 6.50696L8.00037 6.50012Z" fill="#DA74A9"/>
<path fill-rule="evenodd" clip-rule="evenodd" d="M5.06677 1.42688C5.77321 1.00802 6.69082 1.21021 7.17615 1.86927C7.20846 1.91312 7.23868 1.95912 7.26697 2.00696L7.34705 2.13977C7.39608 2.22455 7.44735 2.29879 7.50037 2.36243C7.55364 2.42636 7.60828 2.47999 7.66443 2.52259C7.7204 2.56507 7.77764 2.59702 7.83533 2.61829C8.09542 2.71409 8.36698 2.59402 8.59802 2.25891C8.62359 2.22183 8.64871 2.18214 8.67322 2.13977L8.74646 2.0138C8.83258 1.86689 8.93818 1.7385 9.05798 1.63001C9.56878 1.16713 10.3377 1.06642 10.9535 1.43372L12.1 2.0929C12.151 2.12216 12.2001 2.15386 12.2474 2.18762C12.3418 2.25486 12.4287 2.33071 12.5072 2.41419C12.7036 2.62314 12.848 2.8797 12.9271 3.16712C13.0469 3.62695 12.9865 4.10045 12.7533 4.50696C12.7291 4.54945 12.7076 4.59164 12.6879 4.63294C12.5645 4.89117 12.5296 5.12212 12.5941 5.28919C12.6018 5.3092 12.6099 5.32871 12.6205 5.3468C12.6347 5.37094 12.6518 5.39358 12.6713 5.41516C12.788 5.54461 12.9969 5.62771 13.2709 5.64856C13.3166 5.65206 13.3642 5.65345 13.4135 5.65345C13.4744 5.65345 13.5347 5.65616 13.5941 5.66223C14.4237 5.7471 15.0865 6.40981 15.1713 7.23938C15.1773 7.29878 15.1801 7.35908 15.1801 7.42005V8.5929C15.1801 8.65372 15.1773 8.7143 15.1713 8.77356C15.1535 8.94737 15.109 9.11329 15.0443 9.26868C15.0374 9.28525 15.0292 9.30119 15.0219 9.31751C15.006 9.35252 14.9901 9.38726 14.972 9.42102C14.9672 9.43016 14.9624 9.43933 14.9574 9.44837C14.9353 9.48804 14.9121 9.52684 14.8871 9.56458C14.8776 9.57898 14.8667 9.59246 14.8568 9.60657C14.8353 9.63704 14.8127 9.66642 14.7894 9.69544C14.778 9.70973 14.7671 9.72448 14.7552 9.73841C14.7322 9.76542 14.7086 9.79193 14.684 9.81751C14.6691 9.83293 14.6535 9.84755 14.6381 9.86243C14.6147 9.88501 14.5914 9.90756 14.5668 9.92884C14.5472 9.94581 14.5266 9.96156 14.5062 9.97766C14.481 9.9976 14.4553 10.0167 14.4291 10.0353C14.4144 10.0457 14.4001 10.0566 14.3851 10.0665C14.3509 10.0892 14.3155 10.1097 14.2797 10.13C14.2666 10.1374 14.2539 10.1454 14.2406 10.1525C14.2047 10.1716 14.1676 10.1885 14.1302 10.2052C14.115 10.212 14.0999 10.2193 14.0844 10.2257C14.0498 10.24 14.0145 10.2527 13.9789 10.2648C13.961 10.2709 13.9433 10.2778 13.9252 10.2833C13.8826 10.2963 13.8392 10.3068 13.7953 10.3165C13.7848 10.3189 13.7746 10.3222 13.764 10.3243C13.6506 10.3473 13.5335 10.3605 13.4135 10.3605L13.2709 10.3654C12.9639 10.3887 12.7395 10.49 12.6342 10.6476C12.6297 10.6542 12.6245 10.6603 12.6205 10.6671C12.5638 10.7639 12.5473 10.8889 12.5697 11.0324C12.5923 11.1755 12.6535 11.3373 12.7533 11.507C12.8408 11.6595 12.9045 11.8224 12.9437 11.9904C12.9699 12.1023 12.9859 12.2163 12.9896 12.3312C12.9914 12.3884 12.9897 12.4457 12.9857 12.5031C12.9779 12.6183 12.9588 12.7334 12.9271 12.8468C12.8521 13.1343 12.7096 13.391 12.5121 13.5997C12.4331 13.6833 12.3451 13.759 12.2494 13.8263C12.2016 13.8599 12.1516 13.8909 12.1 13.92L10.9467 14.5802L10.7533 14.672C10.6949 14.6956 10.6354 14.7148 10.5756 14.7316C10.5558 14.7371 10.5359 14.7414 10.516 14.7462C10.4713 14.757 10.4265 14.7657 10.3812 14.7726C10.3633 14.7753 10.3455 14.7783 10.3275 14.7804C10.2654 14.7877 10.203 14.7931 10.14 14.7931L9.93005 14.7794L9.72009 14.7404C9.62034 14.713 9.52507 14.6759 9.43396 14.632C9.42213 14.6263 9.41047 14.6203 9.3988 14.6144C9.36668 14.5979 9.33493 14.5811 9.30408 14.5626C9.29049 14.5545 9.27737 14.5457 9.26404 14.5372C9.23613 14.5194 9.20874 14.501 9.18201 14.4816C9.16618 14.4701 9.15053 14.4585 9.13513 14.4464C9.11547 14.431 9.09645 14.4149 9.07751 14.3986C9.0581 14.3819 9.03853 14.3654 9.0199 14.3478C9.00102 14.3299 8.98325 14.3109 8.96521 14.2921C8.95006 14.2763 8.93483 14.2607 8.92029 14.2443C8.88836 14.2082 8.85735 14.171 8.82849 14.132L8.73962 14.0001L8.66052 13.8663C8.29174 13.2288 7.79344 13.1892 7.40857 13.7472C7.38299 13.7843 7.35788 13.824 7.33337 13.8663L7.26013 13.9933C7.04013 14.3666 6.693 14.6337 6.27966 14.7404C5.8598 14.8535 5.42647 14.7933 5.05994 14.5734L3.91345 13.9132C3.50679 13.6799 3.21297 13.3 3.0863 12.84C3.05713 12.7281 3.03952 12.6154 3.03162 12.5031C3.03057 12.4884 3.03035 12.4737 3.02966 12.4591C3.02788 12.4203 3.02697 12.3816 3.02771 12.3429C3.02809 12.322 3.02952 12.3012 3.03064 12.2804C3.03235 12.249 3.0341 12.2178 3.03748 12.1866C3.04004 12.1628 3.04273 12.139 3.04626 12.1154C3.05029 12.0885 3.05564 12.0619 3.06091 12.0353C3.06612 12.0088 3.07108 11.9824 3.07751 11.9562C3.08333 11.9326 3.09024 11.9093 3.09705 11.8859C3.11978 11.8076 3.14723 11.7305 3.18103 11.6554L3.26013 11.5001C3.2843 11.4576 3.30584 11.4154 3.32556 11.3741C3.44226 11.13 3.48061 10.9098 3.43005 10.7452C3.42072 10.715 3.40835 10.6866 3.39294 10.6603C3.39035 10.6559 3.38693 10.6519 3.38416 10.6476C3.28087 10.486 3.05404 10.3822 2.74255 10.3585L2.59998 10.3536C2.47959 10.3536 2.36214 10.3406 2.24841 10.3175C2.23788 10.3154 2.22763 10.312 2.21716 10.3097C2.17328 10.2999 2.12988 10.2895 2.08728 10.2765C2.06912 10.271 2.05148 10.264 2.03357 10.2579C1.99793 10.2458 1.96269 10.2332 1.9281 10.2189C1.91258 10.2125 1.89749 10.2052 1.8822 10.1984C1.84486 10.1816 1.80777 10.1648 1.77185 10.1456C1.75858 10.1385 1.74585 10.1306 1.73279 10.1232C1.69724 10.103 1.66226 10.0822 1.6283 10.0597C1.61307 10.0496 1.59827 10.039 1.58337 10.0284C1.55713 10.0099 1.53139 9.99077 1.50623 9.97083C1.48663 9.95531 1.46752 9.9393 1.44861 9.92298C1.42328 9.90112 1.39844 9.87883 1.37439 9.85559C1.35882 9.84055 1.3435 9.8253 1.32849 9.8097C1.3053 9.7856 1.28292 9.76085 1.26111 9.73548C1.24798 9.7202 1.23563 9.70432 1.22302 9.6886C1.19726 9.65649 1.17232 9.62385 1.1488 9.58997C1.14134 9.57921 1.13357 9.56867 1.12634 9.55774C1.10282 9.52219 1.0809 9.48564 1.05994 9.44837C1.05351 9.43693 1.04659 9.42578 1.04041 9.41419C0.991734 9.32294 0.951541 9.22689 0.919312 9.12708C0.916878 9.11954 0.913833 9.1122 0.911499 9.10462C0.878035 8.99595 0.854022 8.88309 0.842163 8.76673L0.833374 8.58704V7.41321C0.833382 7.2915 0.845889 7.17262 0.869507 7.05774C0.893111 6.94293 0.928232 6.83228 0.973022 6.72669C1.15219 6.30429 1.49104 5.96541 1.91345 5.78626C2.01905 5.74147 2.12969 5.70634 2.24451 5.68274C2.30184 5.67096 2.36012 5.66145 2.41931 5.6554C2.47871 5.64932 2.53901 5.64661 2.59998 5.64661C2.64921 5.64661 2.6968 5.64522 2.74255 5.64173C2.92516 5.62782 3.07876 5.58583 3.19568 5.52161C3.25416 5.48944 3.30325 5.45154 3.34216 5.40833C3.36163 5.38673 3.37876 5.36413 3.39294 5.33997C3.50626 5.14666 3.46006 4.84007 3.26013 4.50012C3.08524 4.19531 3.00699 3.84913 3.02966 3.50403C3.03719 3.38881 3.0563 3.27371 3.0863 3.16028C3.10082 3.10463 3.11855 3.0504 3.13806 2.9972C3.14214 2.98605 3.14646 2.97502 3.15076 2.96399C3.16629 2.92413 3.18326 2.88511 3.20154 2.8468C3.20844 2.83232 3.21574 2.81808 3.22302 2.80384C3.24227 2.76622 3.26268 2.72941 3.28455 2.69348C3.29361 2.67858 3.30336 2.66414 3.31287 2.64954C3.33118 2.62143 3.3496 2.59348 3.36951 2.56653C3.38453 2.54619 3.40047 2.52661 3.41638 2.50696C3.43354 2.48577 3.45094 2.46482 3.46912 2.44446C3.48446 2.42727 3.49897 2.40928 3.51501 2.3927C3.54842 2.35819 3.58411 2.32583 3.62048 2.29407C3.62394 2.29105 3.62677 2.2873 3.63025 2.2843C3.67283 2.24772 3.71765 2.21341 3.76404 2.18079L3.91345 2.08704L5.06677 1.42688ZM9.98669 2.21887C9.96771 2.22333 9.94955 2.23022 9.93103 2.23645C9.7947 2.2824 9.67205 2.37343 9.59314 2.50696L9.5199 2.63294C9.47233 2.71555 9.42224 2.79383 9.36951 2.86731C9.18511 3.12422 8.97092 3.32445 8.73767 3.46009C8.67119 3.49881 8.60285 3.53159 8.53357 3.5597C8.49892 3.57372 8.46432 3.58745 8.42908 3.59876C8.32301 3.63286 8.21424 3.65451 8.10388 3.66321C8.0673 3.66609 8.03046 3.66711 7.99353 3.66712C7.90091 3.66712 7.80928 3.65666 7.71912 3.6388C7.71028 3.63705 7.70155 3.63486 7.69275 3.63294C7.6411 3.62168 7.58997 3.60791 7.53943 3.59095C7.53152 3.58829 7.52387 3.58495 7.51599 3.58216C7.41276 3.54557 7.31242 3.49732 7.21521 3.43762C7.2053 3.43153 7.19478 3.42637 7.18494 3.42005C7.13881 3.39041 7.09363 3.35807 7.04919 3.32337C7.04048 3.31656 7.03244 3.30888 7.0238 3.30188C6.99396 3.27772 6.9649 3.25214 6.93591 3.22571C6.89289 3.18646 6.85091 3.14487 6.80994 3.10071C6.7973 3.0871 6.78428 3.07376 6.77185 3.0597C6.71868 2.99948 6.66668 2.93575 6.61755 2.86731L6.46716 2.63294L6.39294 2.50012C6.3096 2.36017 6.1747 2.26499 6.02478 2.22571C5.87493 2.18666 5.70997 2.20309 5.56677 2.28626L4.41345 2.95325C4.24012 3.05325 4.10643 3.22005 4.0531 3.42005C4.00047 3.61752 4.02648 3.82133 4.12341 3.99329C4.12462 3.99543 4.12511 3.99799 4.12634 4.00012L4.2533 4.24524C4.28778 4.32142 4.31672 4.39793 4.34216 4.47376C4.35239 4.50423 4.35977 4.5352 4.36853 4.56555C4.3815 4.61047 4.39392 4.65479 4.40369 4.69934C4.46251 4.96782 4.46374 5.22777 4.40564 5.4679C4.40343 5.47705 4.40119 5.48615 4.3988 5.49524C4.38468 5.54909 4.36814 5.6019 4.34802 5.65345C4.34426 5.66309 4.3393 5.67221 4.33533 5.68177C4.31291 5.73567 4.28923 5.78904 4.26013 5.83997L4.20154 5.93372C4.161 5.99303 4.1151 6.04824 4.0658 6.10071C4.02481 6.14433 3.98063 6.18503 3.93396 6.22376C3.92614 6.23025 3.9185 6.23694 3.91052 6.24329C3.86431 6.28009 3.81524 6.31381 3.76404 6.34583C3.75241 6.35309 3.74076 6.3603 3.72888 6.36731C3.67703 6.39796 3.62317 6.42649 3.56677 6.45227C3.55606 6.45717 3.54541 6.46221 3.53455 6.46692C3.47953 6.4908 3.42254 6.51214 3.36365 6.53137C3.31212 6.5482 3.25877 6.56117 3.20447 6.57434C3.17819 6.58072 3.15227 6.58934 3.12537 6.59485C3.05825 6.6086 2.98909 6.61786 2.91833 6.6261C2.90304 6.62788 2.88789 6.63142 2.87244 6.63294C2.7841 6.64163 2.69322 6.64661 2.59998 6.64661C2.57325 6.64661 2.54686 6.64791 2.52087 6.65052C2.15809 6.68693 1.87372 6.97134 1.83728 7.33411C1.83467 7.36009 1.83338 7.38648 1.83337 7.41321V8.58704L1.83728 8.66419C1.84089 8.69995 1.84941 8.73447 1.85779 8.76868C1.93946 9.10198 2.23715 9.35361 2.59998 9.35364L2.87732 9.36731C3.50668 9.43044 4.00344 9.71107 4.26013 10.1603C4.4787 10.543 4.50746 11.0142 4.35095 11.5001C4.31617 11.6081 4.2703 11.7158 4.21716 11.8243C4.1887 11.8825 4.16006 11.9422 4.12634 12.0001C4.02647 12.1734 3.99979 12.3803 4.0531 12.5802C4.10645 12.7801 4.23332 12.9404 4.40662 13.047L5.55994 13.7062C5.6648 13.7711 5.78473 13.7992 5.90271 13.7921C5.94219 13.7898 5.98147 13.7836 6.0199 13.7736C6.05977 13.7636 6.09792 13.7493 6.13416 13.7316C6.17081 13.7137 6.20535 13.6919 6.23767 13.6671C6.30163 13.6179 6.35654 13.5563 6.39978 13.4865L6.47302 13.3605C6.61556 13.1154 6.78277 12.9089 6.96716 12.7462C7.09005 12.6378 7.22058 12.5491 7.35681 12.4816C7.45887 12.4309 7.56379 12.3914 7.67126 12.3654C7.77881 12.3393 7.88913 12.3263 8.00037 12.3263L8.11072 12.3312C8.14571 12.3339 8.18059 12.3376 8.21521 12.3429C8.23584 12.3461 8.25625 12.3505 8.27673 12.3546C8.29006 12.3573 8.30351 12.3594 8.31677 12.3624C8.37695 12.3763 8.43589 12.3955 8.49451 12.4171C8.50454 12.4208 8.51479 12.4239 8.52478 12.4279C8.58307 12.4507 8.64028 12.4776 8.69666 12.5079C8.70241 12.511 8.7085 12.5135 8.71423 12.5167C8.77116 12.5483 8.82662 12.5841 8.88123 12.6232C8.88731 12.6275 8.89373 12.6314 8.89978 12.6359C8.95168 12.6739 9.00168 12.7162 9.05115 12.7609C9.07872 12.7858 9.10448 12.813 9.13123 12.84C9.16122 12.8702 9.19217 12.9001 9.22107 12.9327C9.2512 12.9668 9.27912 13.0034 9.30798 13.0402C9.33308 13.0721 9.35909 13.1039 9.38318 13.1378C9.39198 13.1502 9.39991 13.1633 9.40857 13.1759C9.44892 13.2349 9.48957 13.2959 9.52673 13.3605L9.59998 13.4865C9.67992 13.6264 9.81316 13.7267 9.97302 13.7667C10.133 13.8067 10.2938 13.7862 10.4271 13.7062L11.5804 13.0402C11.732 12.9526 11.8528 12.8138 11.9164 12.6466L11.9398 12.5734C11.9531 12.5234 11.9618 12.4731 11.9652 12.423C11.9721 12.3225 11.9596 12.2228 11.9281 12.129C11.9124 12.0821 11.8916 12.0367 11.8666 11.9933C11.8203 11.9137 11.7789 11.8339 11.7426 11.754C11.7277 11.7215 11.7167 11.6879 11.7035 11.6554C11.6848 11.6094 11.6651 11.5645 11.6498 11.5187C11.64 11.4896 11.6338 11.4598 11.6254 11.4308C11.6097 11.3769 11.5944 11.324 11.5834 11.2706C11.5718 11.2149 11.5625 11.1596 11.556 11.1046C11.5542 11.0889 11.5526 11.0733 11.5511 11.0577C11.5464 11.0058 11.5436 10.9544 11.5433 10.9034V10.8605C11.5435 10.8543 11.5441 10.8481 11.5443 10.8419C11.5463 10.7794 11.5519 10.7179 11.5609 10.6574C11.5622 10.6489 11.5634 10.6404 11.5648 10.632C11.5752 10.5698 11.589 10.5089 11.6068 10.4493C11.6272 10.3814 11.6519 10.3151 11.682 10.2511L11.7338 10.1534C11.8291 9.9867 11.9567 9.84253 12.1127 9.72473C12.1173 9.72121 12.1226 9.71845 12.1273 9.71497C12.2257 9.64235 12.335 9.58031 12.4535 9.52845C12.462 9.52472 12.4703 9.52035 12.4789 9.51673C12.5308 9.49491 12.5847 9.47587 12.64 9.45813C12.6838 9.4441 12.729 9.43343 12.7748 9.422C12.8077 9.41377 12.8405 9.40346 12.8744 9.39661C12.9523 9.38087 13.0328 9.3688 13.1156 9.36048L13.3929 9.3468C13.4408 9.3468 13.4873 9.34133 13.5326 9.33313C13.8303 9.2795 14.0634 9.05733 14.1351 8.76673C14.1438 8.7317 14.1519 8.69613 14.1556 8.6593L14.1605 8.5802V7.40637C14.1604 7.03878 13.8994 6.72723 13.5482 6.6554C13.4981 6.64512 13.4462 6.63977 13.3929 6.63977C13.2997 6.63976 13.2088 6.63481 13.1205 6.6261C13.0944 6.62353 13.069 6.6177 13.0433 6.61438C12.9859 6.60695 12.9294 6.6001 12.8744 6.58899C12.8388 6.5818 12.8044 6.57133 12.7699 6.56262C12.722 6.55055 12.675 6.53851 12.6293 6.52356C12.5715 6.50467 12.5154 6.48443 12.4613 6.46106C12.4485 6.45554 12.4358 6.45023 12.4232 6.44446C12.3666 6.41846 12.3121 6.39042 12.2601 6.3595C12.2516 6.35441 12.2432 6.3491 12.2347 6.34387C12.1792 6.30946 12.1263 6.27255 12.0765 6.23255C12.0736 6.23022 12.0706 6.22806 12.0677 6.22571C11.9321 6.11497 11.8197 5.98344 11.7338 5.83313C11.477 5.38388 11.48 4.8121 11.7396 4.23841C11.7766 4.15659 11.8191 4.07484 11.8666 3.99329C11.8916 3.94989 11.9124 3.9045 11.9281 3.85755C11.9595 3.76375 11.9721 3.66406 11.9652 3.5636C11.9618 3.51346 11.9531 3.46313 11.9398 3.41321C11.9331 3.38817 11.9253 3.36374 11.9164 3.33997C11.8896 3.26876 11.8531 3.20342 11.808 3.14466C11.748 3.06634 11.6729 2.9997 11.5863 2.94641L10.433 2.28626C10.2946 2.20278 10.1348 2.18403 9.98669 2.21887Z" fill="#DA74A9"/>
</svg>
