<svg width="16" height="16" viewBox="0 0 16 16" fill="none" xmlns="http://www.w3.org/2000/svg">
<path d="M7.99963 4.8335C8.27297 4.8335 8.49963 5.06016 8.49963 5.3335V8.6665C8.49963 8.93984 8.27297 9.1665 7.99963 9.1665C7.72646 9.1663 7.49963 8.93972 7.49963 8.6665V5.3335C7.49963 5.06028 7.72646 4.8337 7.99963 4.8335Z" fill="#E39F61"/>
<path fill-rule="evenodd" clip-rule="evenodd" d="M8.24377 2.50439C8.26138 2.50507 8.27894 2.50651 8.29651 2.50732C8.32816 2.50879 8.3597 2.51125 8.39124 2.51318C8.45105 2.51685 8.51059 2.52153 8.56995 2.52686C8.60941 2.53039 8.64885 2.53334 8.68811 2.5376C8.74502 2.54378 8.8016 2.5514 8.85803 2.55908C9.0092 2.57963 9.15867 2.60518 9.30627 2.63623C9.3521 2.64586 9.39753 2.65687 9.44299 2.66748C9.5197 2.68541 9.5959 2.7044 9.67151 2.7251C9.71371 2.73663 9.75564 2.74885 9.79749 2.76123C9.86911 2.78246 9.93982 2.80592 10.0104 2.82959C10.0541 2.84423 10.098 2.85797 10.1412 2.87354C10.5436 3.01846 10.9277 3.20191 11.2877 3.42139C11.329 3.44654 11.3691 3.47345 11.4098 3.49951C11.4656 3.53532 11.5212 3.5714 11.5758 3.60889C11.5962 3.6229 11.6161 3.63762 11.6364 3.65186C11.7103 3.70391 11.7835 3.75692 11.8551 3.81201C11.8761 3.82814 11.8969 3.84446 11.9176 3.86084C11.9783 3.90872 12.0375 3.95828 12.0963 4.0083C12.1282 4.03536 12.1597 4.06266 12.191 4.09033C12.2382 4.13203 12.2848 4.17422 12.3307 4.21729C12.367 4.25133 12.4026 4.28593 12.4381 4.3208C12.4688 4.35099 12.4989 4.38179 12.5289 4.4126C12.5738 4.45856 12.6192 4.50397 12.6627 4.55127C12.711 4.60376 12.7569 4.65831 12.8033 4.7124C12.8258 4.73849 12.8487 4.76407 12.8707 4.79053C12.9403 4.87424 13.0086 4.95912 13.0739 5.04639L13.2506 5.29443C13.3076 5.37854 13.3628 5.46433 13.4156 5.55127C13.6274 5.89944 13.8066 6.26992 13.9489 6.65771C13.9821 6.74846 14.0124 6.84047 14.0416 6.93311C14.0488 6.95578 14.0552 6.97868 14.0621 7.00146C14.0855 7.07873 14.1081 7.15639 14.1285 7.23486C14.1331 7.25235 14.1368 7.27005 14.1412 7.2876C14.1592 7.35882 14.1765 7.4303 14.192 7.50244C14.1993 7.53649 14.2058 7.57074 14.2125 7.60498C14.2271 7.67879 14.2406 7.75294 14.2526 7.82764C14.2564 7.85167 14.2597 7.87579 14.2633 7.8999C14.2752 7.97987 14.2857 8.06022 14.2946 8.14111C14.2971 8.16418 14.2991 8.18731 14.3014 8.21045C14.3215 8.41541 14.3336 8.62337 14.3336 8.8335L14.3248 9.15869C14.3076 9.49886 14.2621 9.83171 14.193 10.1558C14.1855 10.1908 14.1766 10.2254 14.1686 10.2603C14.1493 10.3436 14.1286 10.4262 14.1061 10.5083C14.0965 10.5432 14.087 10.5781 14.0768 10.6128C14.0478 10.7118 14.0167 10.8098 13.983 10.9067C13.9783 10.9204 13.9742 10.9342 13.9694 10.9478C13.8929 11.1632 13.8061 11.3736 13.7076 11.5776C13.6668 11.6622 13.6231 11.7452 13.5787 11.8276C13.5601 11.8622 13.5403 11.896 13.5211 11.9302C13.4929 11.9803 13.4647 12.0303 13.4352 12.0796C13.407 12.1267 13.3777 12.173 13.3483 12.2192C13.33 12.2481 13.3114 12.2767 13.2926 12.3052C13.2679 12.3427 13.2438 12.3805 13.2184 12.4175C13.1841 12.4673 13.1486 12.5162 13.1129 12.5649C13.0896 12.5969 13.0656 12.6282 13.0416 12.6597C13.011 12.7 12.9804 12.7403 12.9489 12.7798C12.921 12.8147 12.8925 12.849 12.8639 12.8833C12.8256 12.9292 12.7863 12.9742 12.7467 13.019C12.7213 13.0478 12.6974 13.0777 12.6715 13.106C12.5454 13.2437 12.4127 13.3753 12.275 13.5015C12.2388 13.5347 12.2017 13.5668 12.1647 13.5991C12.131 13.6286 12.0974 13.6582 12.0631 13.687C12.0202 13.723 11.9761 13.7576 11.9323 13.7925C11.9047 13.8144 11.8772 13.8364 11.8492 13.8579C11.8054 13.8916 11.7612 13.925 11.7164 13.9575C11.672 13.9898 11.6269 14.0211 11.5817 14.0522C11.5579 14.0686 11.5343 14.0851 11.5104 14.1011C11.4534 14.1391 11.3958 14.1761 11.3375 14.2124C11.307 14.2314 11.2766 14.2506 11.2457 14.269C11.2096 14.2907 11.173 14.3116 11.1364 14.3325C10.8205 14.5133 10.488 14.6676 10.1412 14.7925C10.098 14.8081 10.0541 14.8217 10.0104 14.8364C9.93982 14.8601 9.86912 14.8836 9.79749 14.9048C9.75564 14.9172 9.71371 14.9293 9.67151 14.9409C9.59589 14.9616 9.51971 14.9806 9.44299 14.9985C9.39685 15.0093 9.35085 15.021 9.30432 15.0308C9.23611 15.0451 9.16726 15.0567 9.09827 15.0688C9.05334 15.0767 9.00875 15.0873 8.9635 15.0942C8.86953 15.1086 8.77464 15.1192 8.67932 15.1294C8.65268 15.1322 8.62598 15.1347 8.59924 15.1372C8.52019 15.1447 8.44082 15.1512 8.36096 15.1558C8.34178 15.1568 8.32257 15.1578 8.30334 15.1587C8.20266 15.1635 8.10143 15.1675 7.99963 15.1675C7.89058 15.1675 7.78215 15.1642 7.67444 15.1587C7.58505 15.1541 7.49623 15.1464 7.40784 15.1382C7.36569 15.1343 7.32376 15.1293 7.28186 15.1245C7.20593 15.1159 7.1304 15.1064 7.0553 15.0952C7.04619 15.0938 7.03705 15.0927 7.02795 15.0913C6.82809 15.0605 6.6314 15.0203 6.43811 14.9712C6.41889 14.9663 6.39964 14.9616 6.38049 14.9565C6.19147 14.9066 6.00553 14.8494 5.82385 14.7827C5.43602 14.6405 5.06561 14.4613 4.71741 14.2495C4.44996 14.0869 4.19628 13.9038 3.95667 13.7046C3.92755 13.6804 3.8994 13.6551 3.87073 13.6304C3.819 13.5858 3.76766 13.5408 3.71741 13.4946C3.68502 13.4649 3.65346 13.4342 3.6217 13.4038C3.57083 13.3551 3.52054 13.3058 3.47131 13.2554C3.44944 13.233 3.42743 13.2107 3.40588 13.188C3.35102 13.1301 3.29743 13.0711 3.24475 13.0112C3.21777 12.9806 3.19106 12.9497 3.16467 12.9185C3.12599 12.8727 3.08781 12.8266 3.05042 12.7798C3.01844 12.7397 2.98671 12.6995 2.95569 12.6587C2.92524 12.6186 2.89633 12.5774 2.86682 12.5366C2.83348 12.4905 2.79933 12.445 2.76721 12.3979C2.72821 12.3409 2.69109 12.2825 2.65393 12.2241C2.63508 12.1945 2.61566 12.1652 2.59729 12.1353C2.55652 12.0688 2.51748 12.0012 2.47913 11.9331C2.46367 11.9057 2.44731 11.8788 2.43225 11.8511C2.38339 11.7613 2.33628 11.67 2.29163 11.5776C2.19737 11.3823 2.11382 11.1809 2.03967 10.9751C2.02411 10.9318 2.01037 10.8879 1.99573 10.8442C1.97228 10.7744 1.94939 10.7042 1.92834 10.6333C1.91566 10.5905 1.90303 10.5476 1.89124 10.5044C1.86774 10.4186 1.8467 10.3319 1.82678 10.2446C1.82033 10.2163 1.81332 10.1881 1.80725 10.1597C1.78018 10.033 1.75629 9.90517 1.73694 9.77588C1.71008 9.59661 1.69079 9.41483 1.67932 9.23096C1.67678 9.19004 1.67425 9.14904 1.67249 9.10791C1.67205 9.09783 1.67189 9.08773 1.67151 9.07764L1.66663 8.8335C1.66663 8.70763 1.6701 8.58256 1.67737 8.4585C1.68067 8.40191 1.68724 8.34573 1.69202 8.28955C1.69718 8.22908 1.70274 8.16886 1.70959 8.10889C1.71558 8.05628 1.72185 8.00387 1.72913 7.95166C1.73956 7.87701 1.75126 7.80281 1.76428 7.729C1.77221 7.68396 1.77981 7.63895 1.7887 7.59424C1.83501 7.36151 1.89433 7.13348 1.96545 6.91064C1.97809 6.87108 1.99113 6.83171 2.00452 6.79248C2.02903 6.72061 2.05466 6.6493 2.08167 6.57861C2.09833 6.53503 2.11583 6.49185 2.13342 6.44873C2.16332 6.37542 2.19464 6.30287 2.22717 6.23096C2.2422 6.19775 2.25651 6.16425 2.27209 6.13135C2.37335 5.91748 2.48629 5.71021 2.60999 5.51025C2.6281 5.48099 2.64708 5.45229 2.66565 5.42334C2.70663 5.35945 2.74845 5.29619 2.79163 5.23389C2.82263 5.18917 2.85424 5.14494 2.88635 5.10107C2.92548 5.04761 2.96573 4.99505 3.00647 4.94287C3.03345 4.90832 3.05985 4.87333 3.08752 4.83936C3.36145 4.50304 3.6692 4.19534 4.00549 3.92139C4.03533 3.89708 4.06603 3.87387 4.09631 3.8501C4.15934 3.80063 4.22281 3.75169 4.28772 3.70459C4.31929 3.68167 4.35142 3.65955 4.38342 3.63721C4.44884 3.59155 4.51546 3.54762 4.58264 3.50439C4.61847 3.48134 4.65375 3.45741 4.69006 3.43506C4.88352 3.31604 5.08422 3.20793 5.29065 3.10986C5.32905 3.09161 5.36804 3.07463 5.40686 3.05713C5.47565 3.02614 5.54481 2.99586 5.61487 2.96729C5.65922 2.94919 5.70381 2.93166 5.74866 2.91455C5.81102 2.89076 5.87385 2.86804 5.93713 2.84619C5.98874 2.82837 6.04021 2.80997 6.09241 2.79346C6.30492 2.72624 6.52229 2.6702 6.74377 2.62549C6.79751 2.61465 6.85167 2.60565 6.90588 2.59619C6.9839 2.58256 7.06227 2.56982 7.14124 2.55908C7.17564 2.55442 7.21017 2.55049 7.24475 2.54639C7.33825 2.53524 7.43229 2.52606 7.52698 2.51904C7.55851 2.51672 7.59005 2.51407 7.6217 2.51221C7.74677 2.50481 7.87274 2.50049 7.99963 2.50049L8.24377 2.50439ZM7.99963 3.50049C7.0811 3.50054 6.21605 3.73406 5.46057 4.14502L5.23694 4.27393C5.13774 4.33428 5.04073 4.39783 4.94592 4.46436C4.92565 4.47857 4.90544 4.49284 4.88538 4.50732C4.7913 4.5753 4.69936 4.64642 4.60999 4.72021C4.54428 4.77446 4.47964 4.82994 4.41663 4.88721C4.29017 5.00214 4.16928 5.12308 4.05432 5.24951C3.9968 5.31278 3.94083 5.37786 3.88635 5.44385C3.81545 5.52973 3.74779 5.61827 3.68225 5.7085C3.66362 5.73416 3.64476 5.75964 3.62659 5.78564C3.5616 5.87854 3.49913 5.9737 3.44006 6.0708C3.39546 6.14415 3.35227 6.21882 3.31116 6.29443C2.90029 7.0499 2.66663 7.91502 2.66663 8.8335L2.67639 9.14795C2.83981 11.9421 5.16536 14.1663 7.99963 14.1665C8.97544 14.1665 9.8905 13.9017 10.6783 13.4419C10.7805 13.3822 10.8814 13.3205 10.9791 13.2544C11.0501 13.2064 11.1206 13.1572 11.1891 13.106C11.2777 13.0396 11.3627 12.9685 11.4469 12.897C11.4721 12.8756 11.4973 12.8544 11.5221 12.8325C11.6924 12.6824 11.8526 12.5215 12.0026 12.3511C12.2478 12.0723 12.4646 11.7684 12.6481 11.4429C12.7613 11.2423 12.8609 11.0334 12.9479 10.8179C12.9567 10.7961 12.9657 10.7744 12.9742 10.7524C13.017 10.6423 13.058 10.531 13.0934 10.4175C13.1221 10.3254 13.1467 10.2314 13.1705 10.1372C13.2306 9.89922 13.2746 9.65513 13.3014 9.40576C13.312 9.30718 13.3217 9.208 13.3268 9.10791L13.3336 8.8335C13.3336 8.17131 13.2106 7.53728 12.9889 6.95166C12.9646 6.88743 12.9404 6.82329 12.9137 6.76025C12.8799 6.68052 12.8439 6.60155 12.8063 6.52393C12.3187 5.51374 11.522 4.67947 10.5397 4.14502C10.4404 4.09098 10.3389 4.04045 10.236 3.99268C9.64538 3.71868 8.99683 3.55014 8.31409 3.51025L7.99963 3.50049Z" fill="#E39F61"/>
<path d="M9.99963 0.833496C10.273 0.833496 10.4996 1.06016 10.4996 1.3335C10.4996 1.60683 10.273 1.8335 9.99963 1.8335H5.99963C5.72646 1.83329 5.49963 1.60671 5.49963 1.3335C5.49963 1.06028 5.72646 0.833698 5.99963 0.833496H9.99963Z" fill="#E39F61"/>
</svg>
