<svg width="16" height="16" viewBox="0 0 16 16" fill="none" xmlns="http://www.w3.org/2000/svg">
<path d="M3.77893 2.19603C4.82773 1.59006 6.18702 1.7234 7.55627 2.51341L11.6764 4.88646C13.0458 5.67664 13.8413 6.78798 13.8414 7.99974C13.8414 9.13595 13.1424 10.184 11.9264 10.9617L11.6764 11.113L7.55627 13.487L7.5553 13.4861C6.18619 14.2758 4.8276 14.4094 3.77893 13.8034C2.73034 13.1975 2.16673 11.9538 2.16663 10.3738V5.62669C2.16663 4.0464 2.73014 2.80202 3.77893 2.19603ZM3.16663 10.3738C3.16673 11.7398 3.64618 12.5725 4.27893 12.9382C4.9117 13.3038 5.87239 13.3029 7.05627 12.6199L11.1764 10.2468C12.3602 9.56372 12.8414 8.73121 12.8414 7.99974C12.8413 7.26839 12.3608 6.43564 11.1774 5.75267L7.05725 3.37962C5.87347 2.69667 4.91166 2.69665 4.27893 3.06224C3.64622 3.42801 3.16663 4.26055 3.16663 5.62669V10.3738Z" fill="#E39F61"/>
</svg>
