<svg width="16" height="16" viewBox="0 0 16 16" fill="none" xmlns="http://www.w3.org/2000/svg">
<path fill-rule="evenodd" clip-rule="evenodd" d="M7.28646 1.0735C7.70646 0.753496 8.29322 0.753496 8.71322 1.0735C10.2799 2.28684 13.9197 5.50704 13.8997 9.27369C13.8995 12.5201 11.2534 15.1661 8.00033 15.1663C4.74708 15.1663 2.10008 12.5201 2.09994 9.26686C2.07994 5.44706 5.71965 2.26698 7.28646 1.0735ZM8.00033 1.83326C7.96699 1.83326 7.92624 1.84663 7.8929 1.8733C6.76588 2.73362 3.08677 5.80716 3.10677 9.26686C3.10691 11.9734 5.30725 14.1663 8.00716 14.1663C10.7068 14.166 12.9063 11.9733 12.9066 9.27369C12.9266 5.86043 9.24019 2.74671 8.10677 1.8733C8.06689 1.84672 8.03356 1.83334 8.00033 1.83326Z" fill="#5A97E0"/>
</svg>
