<svg width="16" height="16" viewBox="0 0 16 16" fill="none" xmlns="http://www.w3.org/2000/svg">
<path d="M6.79321 1.00626C6.9732 0.799874 7.29365 0.772978 7.50024 0.959381L7.5686 1.0336C7.70828 1.21823 7.70353 1.48563 7.54614 1.66641L6.61743 2.72891C7.06843 2.64001 7.53003 2.59317 8.00024 2.59317L8.32251 2.60098C11.6394 2.76941 14.2794 5.52151 14.2795 8.87344C14.2794 12.3332 11.4667 15.1663 8.00024 15.1664L7.677 15.1586C4.36024 14.9899 1.71997 12.238 1.71997 8.88614C1.72009 7.63972 2.08635 6.43279 2.77954 5.39297C2.93284 5.16656 3.24632 5.10031 3.4729 5.25333C3.69951 5.40662 3.76671 5.72003 3.61353 5.94669C3.03358 6.81328 2.72686 7.83371 2.72681 8.88028L2.73364 9.15176C2.87088 11.8492 5.03801 14.0159 7.7356 14.1527L8.00708 14.1596C10.9201 14.1593 13.2861 11.7933 13.2864 8.88028C13.2862 6.0582 11.0594 3.74855 8.27173 3.60684L8.00024 3.60001C7.46596 3.60001 6.94156 3.66578 6.44067 3.79727L7.78735 4.77969C8.00706 4.93967 8.06012 5.25333 7.8938 5.47989C7.80052 5.61981 7.64666 5.68685 7.49341 5.68692L7.41821 5.68008C7.36736 5.67199 7.31633 5.65631 7.2688 5.63321L7.20044 5.59317L4.94653 3.94669C4.943 3.94412 4.94021 3.94054 4.93677 3.9379L4.92017 3.92618C4.91266 3.9196 4.90668 3.91157 4.89966 3.90469C4.88301 3.8889 4.86775 3.87253 4.85376 3.85489C4.85073 3.85103 4.84788 3.84709 4.84497 3.84317C4.82736 3.81952 4.812 3.79503 4.79907 3.76895C4.7973 3.76542 4.79587 3.76177 4.79419 3.75821C4.78361 3.73553 4.77388 3.71278 4.76685 3.68887C4.76285 3.67565 4.75995 3.66227 4.75708 3.64883C4.75386 3.63327 4.75101 3.61776 4.74927 3.60196C4.74735 3.58537 4.74658 3.56882 4.74634 3.55215C4.74618 3.53781 4.74625 3.52353 4.74731 3.50919C4.74865 3.49083 4.75076 3.47264 4.75415 3.4545C4.75659 3.44139 4.75943 3.42837 4.76294 3.41544C4.76772 3.39788 4.77375 3.38074 4.78052 3.36368C4.78615 3.34935 4.79301 3.33558 4.80005 3.32169C4.80752 3.30707 4.81543 3.29272 4.82446 3.27872C4.82973 3.27048 4.83428 3.26132 4.84009 3.25333C4.84478 3.24669 4.85076 3.2411 4.85571 3.23477C4.85948 3.23012 4.86249 3.22467 4.86646 3.22012L6.79321 1.00626Z" fill="#DF6C67"/>
</svg>
