<svg width="16" height="16" viewBox="0 0 16 16" fill="none" xmlns="http://www.w3.org/2000/svg">
<path fill-rule="evenodd" clip-rule="evenodd" d="M5.75977 1.5C6.99968 1.5 7.59953 2.07326 7.59961 3.25977V12.7402L7.59277 12.9551C7.52239 13.996 6.92235 14.5 5.75977 14.5H3.33984C2.17735 14.5 1.57721 13.996 1.50684 12.9551L1.5 12.7402V3.25977C1.50008 2.07331 2.10003 1.50005 3.33984 1.5H5.75977ZM3.33984 2.5C2.62008 2.50003 2.50003 2.67999 2.5 3.25977V12.7402L2.50586 12.9395C2.53753 13.3622 2.70426 13.5 3.33984 13.5H5.75977C6.38964 13.5 6.56089 13.3623 6.59375 12.9395L6.59961 12.7402V3.25977C6.59958 2.67995 6.48633 2.5 5.75977 2.5H3.33984Z" fill="#E39F61"/>
<path fill-rule="evenodd" clip-rule="evenodd" d="M12.6602 1.5C13.8998 1.50011 14.4999 2.07337 14.5 3.25977V12.7402L14.4932 12.9551C14.4228 13.9959 13.8225 14.4999 12.6602 14.5H10.2402C9.07775 14.5 8.47761 13.996 8.40723 12.9551L8.40039 12.7402V3.25977C8.40047 2.07331 9.00042 1.50005 10.2402 1.5H12.6602ZM10.2402 2.5C9.52047 2.50003 9.40042 2.67999 9.40039 3.25977V12.7402L9.40625 12.9395C9.43792 13.3622 9.60466 13.5 10.2402 13.5H12.6602C13.2897 13.4999 13.4613 13.3622 13.4941 12.9395L13.5 12.7402V3.25977C13.5 2.68005 13.3864 2.50006 12.6602 2.5H10.2402Z" fill="#E39F61"/>
</svg>
