<svg width="62" height="90" viewBox="0 0 62 90" fill="none" xmlns="http://www.w3.org/2000/svg">
<path d="M30.9307 1.5C33.4357 1.5 35.3796 2.70436 36.7617 5.15527L52.4395 34.3076C56.3698 41.6173 60.8623 50.4752 60.8623 59.4619C60.8623 75.6293 47.6022 88.5723 30.9307 88.5723C14.2593 88.5721 1 75.6292 1 59.4619C1.00001 51.5359 4.28712 44.1146 7.91016 37.1611C8.83743 35.3815 11.0588 34.7389 12.8096 35.7197C14.5179 36.6768 15.1364 38.8235 14.2158 40.5518C11.0744 46.4472 8.08302 52.7161 8.08301 59.4619C8.08301 71.8024 18.2328 81.5204 30.9307 81.5205C43.6287 81.5205 53.8223 71.8025 53.8223 59.4619C53.8223 52.0233 50.0641 44.9288 46.1338 37.6621L31.4492 10.3145C31.2332 9.84172 30.715 9.79874 30.499 10.3145L27.4795 15.9209C26.5242 17.6942 24.3013 18.3409 22.5439 17.3564C20.8288 16.3956 20.1999 14.2379 21.1299 12.5059L25.1006 5.1123C26.4394 2.70449 28.3826 1.5001 30.9307 1.5ZM19.8057 46.7812C19.095 45.4173 20.5642 44.2884 21.6738 45.3232C21.6738 45.3232 31.5261 54.316 33.6836 56.2764C35.8409 58.2367 35.8736 61.0875 33.6562 62.8809C31.3485 64.5861 28.6309 63.7979 27.293 61.208L19.8057 46.7812Z" fill="#5A97E0"/>
</svg>
